<?xml version="1.0" encoding="UTF-8" standalone="no"?>
<!-- Created with Inkscape (http://www.inkscape.org/) -->

<svg
   xmlns:dc="http://purl.org/dc/elements/1.1/"
   xmlns:cc="http://creativecommons.org/ns#"
   xmlns:rdf="http://www.w3.org/1999/02/22-rdf-syntax-ns#"
   xmlns:svg="http://www.w3.org/2000/svg"
   xmlns="http://www.w3.org/2000/svg"
   xmlns:sodipodi="http://sodipodi.sourceforge.net/DTD/sodipodi-0.dtd"
   xmlns:inkscape="http://www.inkscape.org/namespaces/inkscape"
   version="1.1"
   id="svg834"
   xml:space="preserve"
   width="244.90053mm"
   height="92.985703mm"
   viewBox="0 0 925.60832 351.44201"
   sodipodi:docname="arena.svg"
   inkscape:version="0.92.5 (2060ec1f9f, 2020-04-08)"><metadata
     id="metadata840"><rdf:RDF><cc:Work
         rdf:about=""><dc:format>image/svg+xml</dc:format><dc:type
           rdf:resource="http://purl.org/dc/dcmitype/StillImage" /><dc:title></dc:title></cc:Work></rdf:RDF></metadata><defs
     id="defs838"><marker
       inkscape:stockid="Arrow2Mend"
       orient="auto"
       refY="0"
       refX="0"
       id="marker2142"
       style="overflow:visible"
       inkscape:isstock="true"><path
         id="path2140"
         style="fill:#000000;fill-opacity:1;fill-rule:evenodd;stroke:#000000;stroke-width:0.625;stroke-linejoin:round;stroke-opacity:1"
         d="M 8.7185878,4.0337352 -2.2072895,0.01601326 8.7185884,-4.0017078 c -1.7454984,2.3720609 -1.7354408,5.6174519 -6e-7,8.035443 z"
         transform="scale(-0.6)"
         inkscape:connector-curvature="0" /></marker><marker
       inkscape:stockid="Arrow2Mend"
       orient="auto"
       refY="0"
       refX="0"
       id="marker2138"
       style="overflow:visible"
       inkscape:isstock="true"><path
         id="path2136"
         style="fill:#000000;fill-opacity:1;fill-rule:evenodd;stroke:#000000;stroke-width:0.625;stroke-linejoin:round;stroke-opacity:1"
         d="M 8.7185878,4.0337352 -2.2072895,0.01601326 8.7185884,-4.0017078 c -1.7454984,2.3720609 -1.7354408,5.6174519 -6e-7,8.035443 z"
         transform="scale(-0.6)"
         inkscape:connector-curvature="0" /></marker><marker
       inkscape:stockid="Arrow2Mend"
       orient="auto"
       refY="0"
       refX="0"
       id="marker2134"
       style="overflow:visible"
       inkscape:isstock="true"><path
         id="path2132"
         style="fill:#000000;fill-opacity:1;fill-rule:evenodd;stroke:#000000;stroke-width:0.625;stroke-linejoin:round;stroke-opacity:1"
         d="M 8.7185878,4.0337352 -2.2072895,0.01601326 8.7185884,-4.0017078 c -1.7454984,2.3720609 -1.7354408,5.6174519 -6e-7,8.035443 z"
         transform="scale(-0.6)"
         inkscape:connector-curvature="0" /></marker><marker
       inkscape:stockid="Arrow2Mend"
       orient="auto"
       refY="0"
       refX="0"
       id="marker2130"
       style="overflow:visible"
       inkscape:isstock="true"><path
         id="path2128"
         style="fill:#000000;fill-opacity:1;fill-rule:evenodd;stroke:#000000;stroke-width:0.625;stroke-linejoin:round;stroke-opacity:1"
         d="M 8.7185878,4.0337352 -2.2072895,0.01601326 8.7185884,-4.0017078 c -1.7454984,2.3720609 -1.7354408,5.6174519 -6e-7,8.035443 z"
         transform="scale(-0.6)"
         inkscape:connector-curvature="0" /></marker><marker
       inkscape:stockid="Arrow2Lend"
       orient="auto"
       refY="0"
       refX="0"
       id="Arrow2Lend"
       style="overflow:visible"
       inkscape:isstock="true"><path
         id="path1859"
         style="fill:#000000;fill-opacity:1;fill-rule:evenodd;stroke:#000000;stroke-width:0.625;stroke-linejoin:round;stroke-opacity:1"
         d="M 8.7185878,4.0337352 -2.2072895,0.01601326 8.7185884,-4.0017078 c -1.7454984,2.3720609 -1.7354408,5.6174519 -6e-7,8.035443 z"
         transform="matrix(-1.1,0,0,-1.1,-1.1,0)"
         inkscape:connector-curvature="0" /></marker><marker
       inkscape:stockid="Arrow1Mend"
       orient="auto"
       refY="0"
       refX="0"
       id="Arrow1Mend"
       style="overflow:visible"
       inkscape:isstock="true"><path
         id="path1847"
         d="M 0,0 5,-5 -12.5,0 5,5 Z"
         style="fill:#000000;fill-opacity:1;fill-rule:evenodd;stroke:#000000;stroke-width:1.00000003pt;stroke-opacity:1"
         transform="matrix(-0.4,0,0,-0.4,-4,0)"
         inkscape:connector-curvature="0" /></marker><inkscape:path-effect
       effect="bspline"
       id="path-effect2122"
       is_visible="true"
       weight="33.333333"
       steps="2"
       helper_size="0"
       apply_no_weight="true"
       apply_with_weight="true"
       only_selected="false" /><inkscape:path-effect
       effect="bspline"
       id="path-effect2118"
       is_visible="true"
       weight="33.333333"
       steps="2"
       helper_size="0"
       apply_no_weight="true"
       apply_with_weight="true"
       only_selected="false" /><inkscape:path-effect
       effect="bspline"
       id="path-effect2114"
       is_visible="true"
       weight="33.333333"
       steps="2"
       helper_size="0"
       apply_no_weight="true"
       apply_with_weight="true"
       only_selected="false" /><inkscape:path-effect
       effect="bspline"
       id="path-effect2106"
       is_visible="true"
       weight="33.333333"
       steps="2"
       helper_size="0"
       apply_no_weight="true"
       apply_with_weight="true"
       only_selected="false" /><marker
       inkscape:stockid="Arrow2Mend"
       orient="auto"
       refY="0"
       refX="0"
       id="Arrow2Mend"
       style="overflow:visible"
       inkscape:isstock="true"><path
         id="path1865"
         style="fill:#000000;fill-opacity:1;fill-rule:evenodd;stroke:#000000;stroke-width:0.625;stroke-linejoin:round;stroke-opacity:1"
         d="M 8.7185878,4.0337352 -2.2072895,0.01601326 8.7185884,-4.0017078 c -1.7454984,2.3720609 -1.7354408,5.6174519 -6e-7,8.035443 z"
         transform="scale(-0.6)"
         inkscape:connector-curvature="0" /></marker><marker
       inkscape:stockid="Arrow2Send"
       orient="auto"
       refY="0"
       refX="0"
       id="Arrow2Send"
       style="overflow:visible"
       inkscape:isstock="true"><path
         id="path1871"
         style="fill:#000000;fill-opacity:1;fill-rule:evenodd;stroke:#000000;stroke-width:0.625;stroke-linejoin:round;stroke-opacity:1"
         d="M 8.7185878,4.0337352 -2.2072895,0.01601326 8.7185884,-4.0017078 c -1.7454984,2.3720609 -1.7354408,5.6174519 -6e-7,8.035443 z"
         transform="matrix(-0.3,0,0,-0.3,0.69,0)"
         inkscape:connector-curvature="0" /></marker><inkscape:path-effect
       effect="bspline"
       id="path-effect1836"
       is_visible="true"
       weight="33.333333"
       steps="2"
       helper_size="0"
       apply_no_weight="true"
       apply_with_weight="true"
       only_selected="false" /><clipPath
       clipPathUnits="userSpaceOnUse"
       id="clipPath850"><path
         d="m 3052,6918 h 5650 v 4200 H 3052 V 6918"
         id="path848"
         inkscape:connector-curvature="0" /></clipPath><clipPath
       clipPathUnits="userSpaceOnUse"
       id="clipPath974"><path
         d="m 9541,6795 h 5650 v 4236 H 9541 V 6795"
         id="path972"
         inkscape:connector-curvature="0" /></clipPath><clipPath
       clipPathUnits="userSpaceOnUse"
       id="clipPath1092"><path
         d="M 3781,3248 H 8810 V 6388 H 3781 V 3248"
         id="path1090"
         inkscape:connector-curvature="0" /></clipPath><clipPath
       clipPathUnits="userSpaceOnUse"
       id="clipPath1136"><path
         d="M 0,0 H 19842 V 14031 H 0 V 0"
         id="path1134"
         inkscape:connector-curvature="0" /></clipPath><clipPath
       clipPathUnits="userSpaceOnUse"
       id="clipPath1214"><path
         d="M 0,0 H 19842 V 14031 H 0 V 0"
         id="path1212"
         inkscape:connector-curvature="0" /></clipPath><clipPath
       clipPathUnits="userSpaceOnUse"
       id="clipPath1226"><path
         d="M 0,0 H 19842 V 14031 H 0 V 0"
         id="path1224"
         inkscape:connector-curvature="0" /></clipPath><clipPath
       clipPathUnits="userSpaceOnUse"
       id="clipPath1092-7"><path
         d="M 3781,3248 H 8810 V 6388 H 3781 V 3248"
         id="path1090-5"
         inkscape:connector-curvature="0" /></clipPath></defs><sodipodi:namedview
     pagecolor="#ffffff"
     bordercolor="#666666"
     borderopacity="1"
     objecttolerance="10"
     gridtolerance="10"
     guidetolerance="10"
     inkscape:pageopacity="0"
     inkscape:pageshadow="2"
     inkscape:window-width="1920"
     inkscape:window-height="1060"
     id="namedview836"
     showgrid="false"
     inkscape:zoom="0.27398286"
     inkscape:cx="2258.3299"
     inkscape:cy="87.759327"
     inkscape:window-x="0"
     inkscape:window-y="0"
     inkscape:window-maximized="0"
     inkscape:current-layer="g842"
     units="mm"
     fit-margin-top="5"
     fit-margin-left="5"
     fit-margin-right="5"
     fit-margin-bottom="5" /><g
     id="g842"
     inkscape:groupmode="layer"
     inkscape:label="drawing"
     transform="matrix(0.08,0,0,-0.08,-218.38461,904.92002)"><g
       id="g1679"
       transform="translate(-225.82377,96.781616)"><path
         inkscape:connector-curvature="0"
         d="m 405.9946,327.50619 c -9.08456,5.52075 -18.70121,10.27456 -27.3116,16.5224 -2.1459,2.69834 1.65116,4.51659 3.53505,5.69311 10.5561,6.53119 21.38756,12.60356 32.14379,18.79555 2.64989,1.07953 3.68446,-1.99633 3.27472,-4.06154 -0.22865,-4.71734 0.64691,-9.64658 -0.47227,-14.2154 -2.14816,-1.48118 -5.62815,-0.91283 -7.24626,-3.18116 -0.81244,-6.1572 -0.0582,-12.51973 -1.02274,-18.59235 -0.34441,-1.17935 -1.89275,-1.39414 -2.90069,-0.96061 z m -71.86114,-1.59593 c -17.09588,9.66918 -34.0236,19.63751 -51.08561,29.36821 -2.2096,2.40132 -0.58517,6.1543 -1.08177,9.13357 0.41462,2.47372 -1.20518,6.36753 1.78573,7.56438 4.58434,-1.32901 8.44657,-4.64016 12.74176,-6.76081 13.32567,-7.80112 26.92184,-15.28181 40.07429,-23.29116 1.68627,-2.42563 0.39247,-5.86312 0.79448,-8.70466 -0.42111,-2.46878 1.13271,-6.57236 -2.13017,-7.50467 -0.36624,0.065 -0.73247,0.13009 -1.09871,0.19514 z m 1.32415,14.59054 c -16.81764,9.81739 -33.92293,19.17415 -50.43423,29.49831 -2.42278,1.93632 0.25544,4.50289 2.23393,5.33668 2.938,1.59128 5.75689,3.82713 8.93638,4.74027 3.27359,-0.44435 5.87568,-3.17874 8.89235,-4.47651 14.56392,-8.47661 29.36145,-16.6945 43.73417,-25.41034 2.38257,-2.64458 -1.97295,-4.36103 -3.84883,-5.43489 -3.09536,-1.30419 -5.82286,-4.43675 -9.24495,-4.35102 z m 12.28621,8.59358 c -7.3375,3.54285 -14.25445,8.09111 -21.41788,12.03669 -10.01001,5.89621 -20.28084,11.48558 -30.11739,17.58959 -1.68381,2.5116 -0.49085,6.03412 -0.92884,8.96372 0.3064,2.26455 -0.89799,6.17003 2.02293,6.96775 2.96289,0.0113 5.26586,-2.68058 7.94577,-3.742 14.79238,-8.53948 29.76843,-16.90785 44.34407,-25.73142 1.68256,-2.42738 0.47628,-5.87042 0.92493,-8.7132 -0.22256,-2.39488 1.02115,-7.34688 -2.77359,-7.37113 z m 1.58612,14.54777 c -12.73639,6.57004 -24.94256,14.18954 -37.35573,21.36635 -4.55341,2.82035 -9.34359,5.31825 -13.67642,8.46522 -1.9812,3.04334 2.31801,4.78955 4.27095,6.20192 2.66435,1.22259 5.30999,4.03632 8.41981,3.3264 16.933,-9.63636 33.92707,-19.21628 50.63027,-29.22742 2.23372,-2.38633 -0.9576,-4.77648 -3.01511,-5.71942 -3.01515,-1.4079 -5.8882,-4.19783 -9.27377,-4.41305 z m 11.73552,8.4109 c -17.04089,9.80279 -34.06722,19.63064 -51.09897,29.4493 -2.1806,2.39691 -0.61746,6.11437 -1.07548,9.08901 0.34343,2.46447 -0.92095,6.85704 2.59744,7.35053 9.15999,-4.62665 17.91347,-10.20239 26.91126,-15.20221 8.33413,-4.9182 16.94073,-9.51096 25.10506,-14.63196 1.70991,-2.43732 0.35461,-5.91212 0.7864,-8.76385 -0.31894,-2.49235 1.34411,-8.64042 -3.22571,-7.29082 z M 256.041,342.26692 c -0.91776,5.02697 -0.23446,10.3264 -0.50309,15.45132 0.0389,14.94192 -0.22867,29.95603 0.12311,44.85159 1.27238,2.70789 4.9764,3.27619 7.24171,5.08789 19.30543,11.13562 38.57727,22.32753 57.91978,33.39878 2.73343,1.10767 3.69137,-2.06931 3.29111,-4.15418 -0.20624,-3.88228 0.60304,-7.95978 -0.47708,-11.69546 -4.09208,-2.70299 -8.50755,-4.94274 -12.72373,-7.46814 -0.29737,-5.04872 0.26191,-10.26285 -0.55601,-15.21106 -2.3187,-2.60409 -6.16414,-3.75828 -9.05785,-5.82467 -1.74865,-1.34615 -5.04355,-1.87067 -4.07648,-4.76014 -0.29241,-4.38852 0.60714,-8.98872 -0.51525,-13.22987 -4.01767,-2.64478 -8.36202,-4.81845 -12.50542,-7.2819 -0.29697,-5.05504 0.26139,-10.27523 -0.55601,-15.22977 -2.28359,-2.57122 -6.09505,-3.69748 -8.9533,-5.71971 -5.34513,-3.03381 -10.59025,-6.25965 -16.02993,-9.11912 -1.17215,-0.20409 -1.81769,0.0347 -2.62156,0.90444 z m 118.24274,52.98985 c -17.08416,9.99349 -34.45788,19.63224 -51.38335,29.80947 -1.63809,2.40483 -0.48077,5.78494 -0.73871,8.61263 -0.30062,2.07175 0.89799,5.2688 3.52167,4.0539 16.92982,-9.71366 33.84017,-19.46095 50.75859,-29.19445 2.18622,-2.33932 0.60438,-6.00753 1.07999,-8.92417 0.28358,-2.18384 -0.19082,-5.52957 -3.23819,-4.35738 z m -11.58582,-8.44833 c -14.40206,7.59613 -28.31266,16.14931 -42.38509,24.35305 -2.96953,2.06373 -6.59885,3.39536 -9.12735,5.99535 -0.98574,3.25422 3.21442,4.36656 5.18719,5.92426 2.92532,1.2823 6.18387,5.25672 9.35363,2.38437 16.50616,-9.61129 33.26613,-18.8369 49.44228,-28.98703 2.1976,-2.74836 -1.71625,-4.46269 -3.65699,-5.58528 -2.88982,-1.28893 -5.55962,-4.00592 -8.81367,-4.08472 z m 296.98268,1.46494 c -3.04413,0.29541 -2.42405,4.12231 -0.57564,5.54608 1.66539,1.46329 2.46085,3.22461 1.99067,5.48282 0.2899,5.05611 -0.59531,10.32 0.46934,15.23913 2.62374,2.19073 5.4596,-1.43946 8.00142,-2.37096 4.4971,-2.79723 9.49617,-5.00651 13.64313,-8.22787 1.65374,-3.00952 -2.93292,-4.1134 -4.78475,-5.53117 -6.02142,-3.34872 -11.82378,-7.22562 -18.07319,-10.09437 -0.22086,-0.0427 -0.44647,-0.0568 -0.67098,-0.0437 z m 22.03551,14.77411 c -16.99356,9.6208 -33.86351,19.46016 -50.79422,29.19177 -2.20413,2.41148 -0.59783,6.17068 -1.10732,9.15668 0.0578,17.30076 -0.43878,34.6241 0.20376,51.9117 0.99378,3.15553 4.39515,1.05428 6.1398,-0.15631 16.01796,-9.30268 32.25803,-18.36356 48.0806,-27.913 1.71025,-2.45508 0.34817,-5.9477 0.78418,-8.81516 -0.0847,-17.31326 0.18982,-34.64341 -0.22633,-51.94639 -0.46278,-1.26717 -1.81035,-1.99078 -3.08047,-1.42929 z M 604.0487,418.62 c -2.28044,2.279 -0.8982,6.02781 -1.35088,8.92327 0.16684,2.53155 0.33364,5.25029 -2.4767,2.78273 -2.88595,-1.22164 -5.43047,-3.90232 -8.59772,-4.10291 -2.92537,0.59356 -1.81971,4.47569 -2.20067,6.65219 -0.0724,2.16888 -0.0748,4.33991 -0.17843,6.50777 -3.57166,-1.57265 -6.71442,-4.37946 -10.42401,-5.43109 -3.29254,-0.01 -2.34392,4.18377 -2.5684,6.34976 -0.042,2.36937 0.0232,4.62821 -0.0984,6.97452 -4.05834,-1.83091 -7.59338,-4.92761 -11.81839,-6.20994 -3.26538,1.40937 -1.20451,5.69516 -1.65036,8.43626 -0.23277,2.65025 0.0935,5.69089 3.14133,6.46449 20.82454,12.05279 41.63088,24.1367 62.47698,36.15189 2.90099,1.18375 3.67657,-2.38075 3.27446,-4.50529 0.10571,-17.77029 0.0526,-35.54104 0.0662,-53.31154 -0.9899,-3.11964 -5.06724,-3.58175 -7.40997,-5.50482 -6.09781,-3.45195 -12.10767,-7.0756 -18.31283,-10.32878 -0.6156,0.0779 -1.32157,-0.23188 -1.87216,0.15149 z m 25.57577,-16.21498 c -7.81231,3.70771 -15.08486,8.56582 -22.41711,13.15559 -2.34697,0.86399 -2.55351,4.16797 -0.19137,5.1463 7.40907,4.82653 15.15561,9.26322 22.91178,13.41884 2.98063,0.25024 5.32473,-2.67054 8.02617,-3.72596 5.58937,-3.5094 11.79701,-6.19972 16.91572,-10.37812 1.82856,-2.3518 -1.44079,-4.7349 -3.67214,-3.50819 -3.08796,0.73922 -6.12842,1.66137 -9.19149,2.49503 -3.04577,-3.8666 -6.81028,-7.26569 -9.38753,-11.44949 -0.0784,-2.05309 0.0612,-5.49067 -2.99403,-5.154 z m -27.73219,16.11161 c -3.60154,1.62222 -7.28257,3.54568 -10.24029,6.17697 -1.40749,3.10445 2.77553,4.25556 4.66093,5.64258 2.44168,0.9139 5.05591,4.35085 7.68766,2.35575 1.0369,-3.9532 0.59708,-8.26886 0.5596,-12.36551 -0.25838,-1.12732 -1.45738,-2.14051 -2.6679,-1.80979 z m -13.22808,7.72477 c -3.65028,1.60435 -7.58236,3.33213 -10.35969,6.25984 -1.48294,3.04199 2.7104,4.22134 4.56512,5.53287 2.5166,0.94984 5.20516,4.44934 7.90376,2.45923 1.02887,-3.95937 0.60144,-8.27502 0.54445,-12.3771 -0.21514,-1.13642 -1.44782,-2.19888 -2.65364,-1.87484 z m -13.68609,7.63478 c -3.59203,1.63664 -7.16055,3.68776 -10.18594,6.23043 -1.53124,3.25389 2.94327,4.40433 4.91965,5.84637 2.255,0.88652 5.37402,4.2476 7.50734,1.50879 0.98078,-3.8782 0.65242,-8.12433 0.26199,-12.09214 -0.36164,-1.15576 -1.39485,-1.48056 -2.50304,-1.49345 z M 469.8681,352.17573 c -3.93792,2.52313 -8.39612,4.40003 -11.91908,7.49844 -1.51627,3.23833 2.89907,4.42385 4.85627,5.92227 1.87134,1.39786 4.78314,2.17412 5.98817,3.94555 0,9.92336 0,19.84673 0,29.77009 -12.89969,7.44566 -25.79926,14.89152 -38.69871,22.33759 -17.04726,-9.84263 -34.09419,-19.68584 -51.14086,-29.5295 -3.17506,-1.232 -3.60208,2.80359 -3.33236,4.98931 -0.10522,3.28684 -0.21047,6.57369 -0.31572,9.86054 -16.84425,9.87024 -33.99275,19.26512 -50.56522,29.57494 -2.14752,2.94696 2.00789,4.38262 3.92034,5.62858 23.96479,14.12278 47.91401,28.30106 72.22422,41.81519 3.14608,0.88534 3.57881,-3.005 3.46457,-5.17853 0.25696,-8.26757 0.20544,-16.5413 0.30826,-24.81166 30.66323,-17.68038 61.22534,-35.53478 92.00222,-53.0041 4.34197,1.91962 8.35712,4.48698 12.50987,6.77042 0,9.98663 0,19.97326 0,29.95989 -30.20092,17.58169 -60.69965,34.67013 -90.59431,52.76708 -2.26156,1.91985 0.35909,4.34623 2.33896,5.04798 33.7691,19.83156 67.63208,39.51935 101.74541,58.74889 3.19309,0.26484 5.61579,-2.64193 8.45129,-3.77975 32.75192,-18.70226 65.5256,-37.3721 98.10405,-56.37349 2.41396,-2.17009 -0.64065,-4.41269 -2.64205,-5.18253 -20.53562,-12.04025 -41.18912,-23.87874 -61.79105,-35.80537 -0.0686,-3.74818 -0.13721,-7.49636 -0.20584,-11.24454 13.36131,-7.98488 27.21406,-15.17988 40.26345,-23.66708 2.28223,-1.8792 -0.25656,-4.33328 -2.25915,-4.98868 -25.78579,-14.93165 -51.54455,-29.92515 -77.48092,-44.58744 -3.5925,-0.65492 -6.58809,2.42466 -9.69464,3.75548 -6.13273,3.45533 -12.2088,7.10363 -18.36458,10.46081 -4.26183,-1.99511 -8.19937,-4.43166 -12.30403,-6.71607 -0.21422,-5.39325 0.42346,-10.93714 -0.31289,-16.23807 -2.24419,-2.61046 -6.08464,-3.72626 -8.9452,-5.75079 -1.76628,-0.75708 -3.55649,-2.85576 -5.61047,-1.99545 z M 424.33843,326.2997 c -1.05505,0.22177 -1.78887,1.27393 -1.718,2.33597 0.0361,1.29096 -0.0338,2.61037 0.28916,3.87163 0.30129,1.15927 1.64727,1.87891 2.77495,1.46768 0.99119,-0.42883 1.88939,-1.05358 2.83323,-1.57787 0.68489,-0.35824 1.37336,-0.85079 1.57706,-1.64095 0.2953,-1.00315 -0.24939,-2.11565 -1.17714,-2.57016 -1.07229,-0.61662 -2.19318,-1.1446 -3.26603,-1.75854 -0.41659,-0.17411 -0.87103,-0.20026 -1.31323,-0.12776 z m -15.8791,-51.02238 c -2.18284,2.42958 -0.54856,6.1748 -1.03459,9.1647 0.22504,20.3826 -0.16305,40.78201 0.53024,61.15398 -0.15269,4.03944 4.49066,5.83528 7.85576,5.71984 2.80852,-1.57479 1.45232,-5.42517 1.85968,-8.06516 -0.18396,-2.81278 -0.49971,-5.70145 2.85825,-6.47668 2.46565,-1.10263 5.10579,-2.8416 4.22172,-5.96189 -0.0388,-18.02085 0.34102,-36.11421 0.0409,-54.09002 -1.07987,-3.18397 -4.87774,-0.75364 -7.30798,-1.14626 -3.03257,0.36643 -6.06989,-0.7299 -9.02397,-0.29851 z"
         style="fill:#c5c5c5;fill-opacity:1;fill-rule:evenodd;stroke:#bfda70;stroke-width:0;stroke-linecap:square;stroke-linejoin:round;stroke-miterlimit:4;stroke-dasharray:none;stroke-dashoffset:0;stroke-opacity:1"
         transform="matrix(12.5,0,0,-12.5,0,14033.334)"
         id="path1499" /><path
         transform="matrix(12.5,0,0,-12.5,0,14033.334)"
         inkscape:connector-curvature="0"
         id="path1434"
         d="m 308.64974,309.55898 c -16.92839,9.8577 -34.00695,19.46576 -50.782,29.58203 -1.71816,1.24776 -0.77663,3.60313 0.93506,4.27011 7.74588,4.73466 15.56967,9.3939 23.61005,13.59857 2.56075,0.12281 4.46607,-2.10553 6.72237,-3.01644 15.36363,-8.8092 30.77757,-17.54075 45.99777,-26.59331 1.77594,-1.4514 0.37513,-3.79066 -1.37944,-4.43857 -7.6515,-4.66391 -15.40121,-9.25451 -23.2792,-13.47776 -0.64791,-0.21936 -1.20732,-0.25148 -1.82461,0.0754 z"
         style="fill:#f2ca79;fill-opacity:1;fill-rule:evenodd;stroke:#bfda70;stroke-width:0;stroke-linecap:square;stroke-linejoin:round;stroke-miterlimit:4;stroke-dasharray:none;stroke-dashoffset:0;stroke-opacity:1" /><path
         inkscape:connector-curvature="0"
         d="m 467.73753,369.23457 c -12.7107,7.01855 -25.19226,14.45164 -37.78892,21.67462 -2.20226,2.41734 -0.57698,6.17579 -1.07553,9.16476 0.12395,7.00216 -0.2763,14.05918 0.42504,21.0277 1.56491,3.12401 4.88868,0.21732 6.88769,-0.81727 11.29929,-6.51066 22.77285,-12.8623 33.85229,-19.66196 1.70708,-2.44869 0.38968,-5.93514 0.8464,-8.79603 -0.0478,-7.05532 0.36436,-14.14921 -0.18324,-21.18303 -0.35254,-1.21882 -1.82047,-1.82415 -2.96373,-1.40879 z M 351.02121,346.05312 c -3.22118,1.13752 -1.74677,5.39776 -2.03725,7.94827 0.35904,3.66998 -0.37813,7.56965 0.8236,11.06649 3.96737,2.58963 8.20264,4.79159 12.27195,7.23378 0.44717,4.21974 -0.29515,8.69418 0.96861,12.73888 21.39299,12.61127 43.0025,24.91776 64.53379,37.31576 2.75435,1.1232 3.69372,-2.18121 3.26491,-4.2656 -0.0322,-8.69238 0.22113,-17.45801 -0.14365,-26.10394 -1.27637,-2.7058 -4.98145,-3.26839 -7.24942,-5.07659 -23.73542,-13.58368 -47.33719,-27.42216 -71.19037,-40.78754 -0.40026,-0.12952 -0.82917,-0.15337 -1.24217,-0.0695 z m 66.16268,-7.85041 c -2.50201,1.83989 -0.98561,5.50575 -1.4578,8.14536 0.0828,7.39454 -0.10656,14.86259 0.30439,22.20791 1.22772,2.6122 4.74831,3.20558 6.9588,4.92726 2.16999,0.90743 5.08821,4.03941 7.19164,1.57503 1.1947,-3.84904 0.40719,-8.16239 0.71313,-12.18334 -0.18014,-5.81743 0.41395,-11.77664 -0.30576,-17.50073 -2.0958,-2.49665 -5.73109,-3.563 -8.46298,-5.44584 -1.59522,-0.7148 -3.04873,-2.26419 -4.94142,-1.72565 z m -11.12691,-56.93377 c -23.61052,13.58294 -47.30759,27.05765 -70.75709,40.89433 -1.6882,1.89864 0.60987,4.15486 0.0258,6.34894 0.33121,3.34908 -0.53019,6.8942 0.57475,10.09505 25.12259,14.8341 50.52498,29.27756 75.80591,43.87347 5.79068,3.27842 11.51978,6.67403 17.37877,9.82746 3.24381,0.31701 5.7322,-2.6529 8.61293,-3.7714 10.29539,-5.89341 20.67958,-11.65091 30.79062,-17.85422 2.52791,-2.41711 -1.12027,-4.74767 -3.0935,-5.76359 -2.83075,-1.30366 -5.3375,-3.80548 -8.44688,-4.21561 -6.69684,2.37941 -12.54632,6.71965 -18.81469,10.02832 -2.74072,1.51177 -5.39807,3.21497 -8.2973,4.41163 -25.77528,-14.74753 -51.64556,-29.3679 -77.05652,-44.76653 -0.19423,-1.038 3.0208,-2.02612 4.07541,-2.99915 17.13659,-10.24326 34.68095,-19.92792 51.77695,-30.15372 1.70611,-2.41859 0.40504,-5.87096 0.8105,-8.71495 -0.39459,-2.49456 1.13025,-6.84723 -2.36631,-7.51181 -0.3398,0.0906 -0.67959,0.18119 -1.01939,0.27178 z m 0.28515,15.39964 c -11.45009,5.90521 -22.40626,12.80842 -33.59008,19.22618 -6.99413,4.22483 -14.17383,8.17798 -20.97699,12.70033 -2.09968,2.63173 1.49762,4.40638 3.35846,5.57 6.83194,4.17265 13.74558,8.36087 20.80528,12.05211 2.89727,0.23998 5.18655,-2.50758 7.79729,-3.58093 8.21149,-4.8676 16.67964,-9.43696 24.7134,-14.51896 1.7021,-2.45046 0.38747,-5.93323 0.84325,-8.79364 -0.16644,-7.00488 0.59531,-14.10357 -0.31748,-21.05738 -0.34493,-1.11212 -1.49007,-1.78437 -2.63313,-1.59771 z m 18.93722,-0.42772 c -3.2485,1.1169 -1.93007,5.39003 -2.31042,7.99917 0.048,7.37477 -0.22303,14.82133 0.12957,22.14959 0.9612,2.37299 4.06141,2.94422 6.05171,4.35208 3.29315,0.32495 5.75185,-2.80239 8.66884,-3.94 5.7479,-3.53744 11.89874,-6.52587 17.36584,-10.46787 2.22342,-2.21825 -0.75215,-4.43087 -2.75656,-5.20515 -8.6737,-4.97022 -17.26205,-10.12633 -26.07433,-14.83346 -0.35039,-0.13603 -0.71442,-0.0697 -1.07465,-0.0544 z m 59.72731,49.62781 c -3.20062,0.9553 -1.75324,5.0471 -2.21268,7.49281 -0.0348,7.6793 -0.24188,15.43075 0.10344,23.06394 1.23672,2.64775 4.82563,3.21949 7.06647,4.95624 2.35107,0.90455 4.98135,4.19384 7.46799,2.03623 1.0922,-3.86951 0.22382,-8.11609 0.52731,-12.12493 -0.18714,-6.00222 0.40742,-12.14626 -0.31179,-18.05587 -2.17009,-2.54194 -5.87849,-3.65264 -8.67665,-5.59365 -1.29574,-0.65421 -2.45686,-1.69646 -3.96409,-1.77477 z m -12.64443,-23.62253 c -3.26772,0.92811 -2.08144,5.14879 -2.40414,7.67304 0.0541,7.48274 -0.22163,15.03765 0.1324,22.47394 1.2705,2.70733 4.97673,3.2655 7.24376,5.07055 2.01488,0.89122 5.09419,4.08179 6.83534,1.34987 0.83193,-4.0869 0.26542,-8.43968 0.56618,-12.62765 3.94024,-2.49258 8.36401,-4.38334 11.89681,-7.44764 1.57276,-3.23171 -2.89803,-4.52466 -4.85995,-6.01568 -6.17068,-3.49005 -12.16013,-7.39589 -18.55139,-10.44702 -0.28245,-0.06 -0.57255,-0.0685 -0.85901,-0.0294 z m -3.34867,-0.10158 c -13.23554,7.00886 -26.03583,14.85382 -39.06495,22.25115 -2.20226,2.41734 -0.57698,6.17579 -1.07553,9.16476 0.10409,7.1144 -0.20839,14.30244 0.15644,21.37073 0.92988,3.15556 4.26373,0.83697 5.9635,-0.31897 12.00949,-7.12023 24.32396,-13.85789 36.18553,-21.14231 1.70895,-2.45601 0.34792,-5.94736 0.78359,-8.8149 -0.19553,-7.11932 0.39426,-14.35123 -0.41346,-21.40641 -0.67099,-0.88636 -1.42258,-1.25183 -2.53512,-1.10405 z m -44.33568,-41.37195 c -2.66592,1.72512 -1.29863,5.54581 -1.63425,8.19526 0.42451,3.09921 -1.19953,7.81515 2.78541,9.04763 9.5561,5.54936 19.18157,10.99243 28.67506,16.61725 -11.95166,7.61801 -24.66486,14.0588 -36.52447,21.83681 -1.82814,3.23328 2.72849,4.47444 4.67104,5.93459 2.61317,1.15299 5.01054,3.70768 7.96454,3.60289 13.60305,-7.17681 26.57173,-15.6486 40.27585,-22.68893 1.77824,-0.12535 3.42133,1.83884 5.14434,2.48226 6.55311,3.85255 13.45553,7.52721 19.68738,11.69571 -3.533,2.55518 -8.03575,4.01617 -10.9642,7.26948 -0.87162,3.23098 3.3634,4.15345 5.31216,5.7269 2.97973,1.27718 6.32018,5.38914 9.51013,2.40255 7.59292,-4.65565 15.68788,-8.6047 22.99118,-13.66932 1.66524,-3.16578 -2.78173,-4.21097 -4.65068,-5.60491 -30.4273,-17.68772 -60.84875,-35.3907 -91.44262,-52.78758 -0.60367,-0.31817 -1.16703,-0.17466 -1.80087,-0.0606 z m 96.20544,57.5896 c -8.0573,4.6672 -16.3088,9.14252 -24.15968,14.07592 -1.71027,2.45562 -0.34843,5.94811 -0.78432,8.81593 0.24707,6.89973 -0.5053,13.90899 0.46603,20.7479 1.02702,2.81471 4.2475,1.34582 5.9141,0.0873 7.10106,-4.0863 14.40159,-7.97175 21.29324,-12.33119 1.71777,-2.45204 0.35604,-5.94977 0.79555,-8.8177 -0.1691,-7.14284 0.38552,-14.3762 -0.47565,-21.4679 -0.49994,-1.10569 -1.93447,-1.68724 -3.04927,-1.11029 z M 403.94868,454.11706 c -2.43101,1.94367 -0.98342,5.63739 -1.48454,8.33249 -0.25816,7.41828 0.32729,15.02452 -0.46068,22.23868 -1.87521,2.9234 2.19706,4.54984 4.15117,5.66108 2.9724,1.46359 5.68318,3.93584 8.89379,4.68681 3.32762,-0.0331 2.21777,-4.37607 2.52042,-6.5314 0.076,-8.94694 0.27938,-17.96634 -0.0549,-26.8678 -1.19052,-2.60669 -4.6919,-3.19403 -6.88587,-4.89539 -2.1525,-0.90214 -4.18382,-3.21656 -6.67943,-2.62447 z m 91.85787,-54.98142 c -30.20185,17.58235 -60.6767,34.71715 -90.61392,52.74124 -2.45535,2.73786 1.6472,4.80574 3.60438,6.01613 2.86796,1.29567 5.43222,4.23094 8.65888,4.07891 28.44776,-16.29304 56.90705,-32.61237 85.10423,-49.3503 2.17988,-1.69489 5.45889,-2.54666 6.64203,-5.20517 -0.0512,-3.06113 -3.85636,-3.6239 -5.8407,-5.21803 -2.43916,-0.94385 -4.82243,-3.84177 -7.5549,-3.06278 z m 11.81839,8.6515 c -30.31125,17.47813 -60.60456,34.98792 -90.9053,52.48461 -2.20573,2.41529 -0.57805,6.17659 -1.07731,9.16564 0.10423,7.09863 -0.20867,14.27101 0.15644,21.32351 0.95902,3.16698 4.30234,0.82397 6.05026,-0.31734 29.39953,-17.02486 58.82975,-33.99709 88.24687,-50.9919 2.20505,-2.41465 0.58229,-6.1754 1.0838,-9.16386 -0.15578,-7.11433 0.35527,-14.30674 -0.44133,-21.37701 -0.47794,-1.12916 -2.00397,-1.77693 -3.11343,-1.12365 z"
         style="fill:#8ecade;fill-opacity:1;fill-rule:evenodd;stroke:#bfda70;stroke-width:0;stroke-linecap:square;stroke-linejoin:round;stroke-miterlimit:4;stroke-dasharray:none;stroke-dashoffset:0;stroke-opacity:1"
         transform="matrix(12.5,0,0,-12.5,0,14033.334)"
         id="path1464" /><path
         inkscape:connector-curvature="0"
         d="m 632.50207,391.60849 c -2.49032,1.17589 -1.45364,4.43029 -1.77359,6.61402 0.13756,3.56038 -0.37668,7.23362 0.28554,10.71628 2.40091,3.22264 5.11195,6.35309 7.9326,9.26322 1.69698,1.3889 4.00591,-0.41121 3.67858,-2.40193 0.10459,-4.77474 0.35141,-9.634 -0.0644,-14.36051 -1.34303,-2.42318 -3.69332,-4.26926 -5.32195,-6.56013 -1.32565,-1.35249 -2.46284,-3.75893 -4.73679,-3.27095 z m 27.23369,3.90466 c -5.91304,1.58137 -11.81523,3.3445 -17.66453,5.0741 -2.06826,1.78089 -1.04637,4.93634 -1.35864,7.32222 0.11389,3.75073 -0.26483,7.58136 0.19108,11.28009 0.84297,2.57934 3.9221,1.01192 5.75339,0.58321 5.10445,-1.56444 10.42676,-2.65593 15.39198,-4.52744 1.91811,-1.50899 0.67916,-4.43497 1.03249,-6.55703 -0.18194,-4.0384 0.37374,-8.19192 -0.29488,-12.15438 -0.43886,-1.18184 -1.97756,-1.38765 -3.05089,-1.02077 z m -8.61898,-12.20167 c -5.84938,1.83792 -11.95719,2.98851 -17.61854,5.3608 -2.18173,1.16611 -1.09731,3.83675 0.30622,5.15979 2.47995,2.89867 4.65082,6.27435 7.80743,8.46272 2.66242,0.24164 5.19604,-1.29527 7.80861,-1.75178 3.79059,-1.21027 7.84503,-1.91347 11.45071,-3.52942 2.20755,-1.53044 0.0907,-3.98861 -1.11024,-5.38053 -2.393,-2.71986 -4.45596,-5.86345 -7.23682,-8.15441 -0.3686,-0.37907 -0.95097,-0.0888 -1.40737,-0.16717 z"
         style="fill:#ea6e6f;fill-opacity:1;fill-rule:evenodd;stroke:#bfda70;stroke-width:0;stroke-linecap:square;stroke-linejoin:round;stroke-miterlimit:4;stroke-dasharray:none;stroke-dashoffset:0;stroke-opacity:1"
         transform="matrix(12.5,0,0,-12.5,0,14033.334)"
         id="path1432" /><path
         inkscape:connector-curvature="0"
         d="m 415.56759,244.39773 c -5.15923,0.12818 -11.38575,1.72466 -13.74601,6.81315 -1.56081,3.4888 1.00526,7.19378 4.16677,8.6549 6.37479,3.37297 14.60658,3.23273 20.85972,-0.35348 7.67389,-3.96848 2.44728,-13.67334 -4.61666,-14.30932 -2.16586,-0.59377 -4.42014,-0.8479 -6.66382,-0.80525 z m 12.21599,12.66334 c -6.88493,4.78841 -15.66602,3.47992 -23.05224,1.00692 -4.5298,1.85893 -2.48636,8.36575 -2.22591,12.22562 2.3953,7.51503 12.47083,7.98725 18.95148,6.46211 5.76387,-1.13699 10.56651,-6.30456 9.4704,-12.44126 -0.28178,-2.48374 1.26931,-8.34791 -3.14373,-7.25339 z"
         style="fill:#bfda70;fill-opacity:1;fill-rule:evenodd;stroke:#bfda70;stroke-width:0;stroke-linecap:square;stroke-linejoin:round;stroke-miterlimit:4;stroke-dasharray:none;stroke-dashoffset:0;stroke-opacity:1"
         transform="matrix(12.5,0,0,-12.5,0,14033.334)"
         id="path1424" /><g
         id="g844"><g
           clip-path="url(#clipPath850)"
           id="g846"><path
             inkscape:connector-curvature="0"
             id="path852"
             style="fill:none;stroke:#000000;stroke-width:24;stroke-linecap:round;stroke-linejoin:round;stroke-miterlimit:10;stroke-dasharray:none;stroke-opacity:1"
             d="m 5029,10673.5 c 0,-54.952 77.231,-99.5 172.5,-99.5 95.269,0 172.5,44.548 172.5,99.5" /><path
             inkscape:connector-curvature="0"
             id="path854"
             style="fill:none;stroke:#000000;stroke-width:24;stroke-linecap:round;stroke-linejoin:round;stroke-miterlimit:10;stroke-dasharray:none;stroke-opacity:1"
             d="m 5323.4761,10796.143 c 67.3652,38.857 67.3652,101.857 0,140.714 -67.3658,38.857 -176.5865,38.857 -243.9522,0 -67.3652,-38.857 -67.3652,-101.857 0,-140.714 67.3657,-38.857 176.5864,-38.857 243.9522,0" /><path
             inkscape:connector-curvature="0"
             id="path856"
             style="fill:none;stroke:#000000;stroke-width:24;stroke-linecap:round;stroke-linejoin:round;stroke-miterlimit:10;stroke-dasharray:none;stroke-opacity:1"
             d="m 5105,9709.5 c 0,-15.458 11.2085,-30.2148 30.9272,-40.7187 19.7183,-10.503 46.1597,-15.8018 72.9576,-14.6182" /><path
             inkscape:connector-curvature="0"
             id="path858"
             style="fill:none;stroke:#000000;stroke-width:24;stroke-linecap:round;stroke-linejoin:round;stroke-miterlimit:10;stroke-dasharray:none;stroke-opacity:1"
             d="m 8021,9013 255,72 v -231 l -255,-72 v 231" /><path
             inkscape:connector-curvature="0"
             id="path860"
             style="fill:none;stroke:#000000;stroke-width:24;stroke-linecap:round;stroke-linejoin:round;stroke-miterlimit:10;stroke-dasharray:none;stroke-opacity:1"
             d="m 8021,8782 -125,147" /><path
             inkscape:connector-curvature="0"
             id="path862"
             style="fill:none;stroke:#000000;stroke-width:24;stroke-linecap:round;stroke-linejoin:round;stroke-miterlimit:10;stroke-dasharray:none;stroke-opacity:1"
             d="m 7896,8929 v 231 l 125,-147" /><path
             inkscape:connector-curvature="0"
             id="path864"
             style="fill:none;stroke:#000000;stroke-width:24;stroke-linecap:round;stroke-linejoin:round;stroke-miterlimit:10;stroke-dasharray:none;stroke-opacity:1"
             d="m 8276,9085 -125,147 -255,-72" /><path
             inkscape:connector-curvature="0"
             id="path866"
             style="fill:none;stroke:#000000;stroke-width:24;stroke-linecap:round;stroke-linejoin:round;stroke-miterlimit:10;stroke-dasharray:none;stroke-opacity:1"
             d="m 6211,9617 334,193 v -386 l -334,-193 v 386" /><path
             inkscape:connector-curvature="0"
             id="path868"
             style="fill:none;stroke:#000000;stroke-width:24;stroke-linecap:round;stroke-linejoin:round;stroke-miterlimit:10;stroke-dasharray:none;stroke-opacity:1"
             d="m 6211,9231 -165,95" /><path
             inkscape:connector-curvature="0"
             id="path870"
             style="fill:none;stroke:#000000;stroke-width:24;stroke-linecap:round;stroke-linejoin:round;stroke-miterlimit:10;stroke-dasharray:none;stroke-opacity:1"
             d="m 6046,9326 v 386 l 165,-95" /><path
             inkscape:connector-curvature="0"
             id="path872"
             style="fill:none;stroke:#000000;stroke-width:24;stroke-linecap:round;stroke-linejoin:round;stroke-miterlimit:10;stroke-dasharray:none;stroke-opacity:1"
             d="M 6225,9816 6046,9712" /><path
             inkscape:connector-curvature="0"
             id="path874"
             style="fill:none;stroke:#000000;stroke-width:24;stroke-linecap:round;stroke-linejoin:round;stroke-miterlimit:10;stroke-dasharray:none;stroke-opacity:1"
             d="m 6046,9533 -159,92" /><path
             inkscape:connector-curvature="0"
             id="path876"
             style="fill:none;stroke:#000000;stroke-width:24;stroke-linecap:round;stroke-linejoin:round;stroke-miterlimit:10;stroke-dasharray:none;stroke-opacity:1"
             d="m 5374,9328 513,297 v 386 l 338,-195" /><path
             inkscape:connector-curvature="0"
             id="path878"
             style="fill:none;stroke:#000000;stroke-width:24;stroke-linecap:round;stroke-linejoin:round;stroke-miterlimit:10;stroke-dasharray:none;stroke-opacity:1"
             d="m 5374,9328 v 386 l 513,297" /><path
             inkscape:connector-curvature="0"
             id="path880"
             style="fill:none;stroke:#000000;stroke-width:24;stroke-linecap:round;stroke-linejoin:round;stroke-miterlimit:10;stroke-dasharray:none;stroke-opacity:1"
             d="m 5209,9424 v 386 l 165,-96" /><path
             inkscape:connector-curvature="0"
             id="path882"
             style="fill:none;stroke:#000000;stroke-width:24;stroke-linecap:round;stroke-linejoin:round;stroke-miterlimit:10;stroke-dasharray:none;stroke-opacity:1"
             d="M 5710,10099 5209,9810" /><path
             inkscape:connector-curvature="0"
             id="path884"
             style="fill:none;stroke:#000000;stroke-width:24;stroke-linecap:round;stroke-linejoin:round;stroke-miterlimit:10;stroke-dasharray:none;stroke-opacity:1"
             d="m 5376,9906 -79,45" /><path
             inkscape:connector-curvature="0"
             id="path886"
             style="fill:none;stroke:#000000;stroke-width:24;stroke-linecap:round;stroke-linejoin:round;stroke-miterlimit:10;stroke-dasharray:none;stroke-opacity:1"
             d="m 5297,10337 413,-238" /><path
             inkscape:connector-curvature="0"
             id="path888"
             style="fill:none;stroke:#000000;stroke-width:24;stroke-linecap:round;stroke-linejoin:round;stroke-miterlimit:10;stroke-dasharray:none;stroke-opacity:1"
             d="M 5105,9943 4708,9713" /><path
             inkscape:connector-curvature="0"
             id="path890"
             style="fill:none;stroke:#000000;stroke-width:24;stroke-linecap:round;stroke-linejoin:round;stroke-miterlimit:10;stroke-dasharray:none;stroke-opacity:1"
             d="m 5376,8749 501,289 v 386 l -167,96 -334,-193 -1003,579 732,423" /><path
             inkscape:connector-curvature="0"
             id="path892"
             style="fill:none;stroke:#000000;stroke-width:24;stroke-linecap:round;stroke-linejoin:round;stroke-miterlimit:10;stroke-dasharray:none;stroke-opacity:1"
             d="m 4541,9231 835,-482 v 385 l 501,290" /><path
             inkscape:connector-curvature="0"
             id="path894"
             style="fill:none;stroke:#000000;stroke-width:24;stroke-linecap:round;stroke-linejoin:round;stroke-miterlimit:10;stroke-dasharray:none;stroke-opacity:1"
             d="M 4206,9810 5376,9134" /><path
             inkscape:connector-curvature="0"
             id="path896"
             style="fill:none;stroke:#000000;stroke-width:24;stroke-linecap:round;stroke-linejoin:round;stroke-miterlimit:10;stroke-dasharray:none;stroke-opacity:1"
             d="m 6545,9810 -1248,720" /><path
             inkscape:connector-curvature="0"
             id="path898"
             style="fill:none;stroke:#000000;stroke-width:24;stroke-linecap:round;stroke-linejoin:round;stroke-miterlimit:10;stroke-dasharray:none;stroke-opacity:1"
             d="M 5105,10522 4173,9983" /><path
             inkscape:connector-curvature="0"
             id="path900"
             style="fill:none;stroke:#000000;stroke-width:24;stroke-linecap:round;stroke-linejoin:round;stroke-miterlimit:10;stroke-dasharray:none;stroke-opacity:1"
             d="m 5209,7880 1169,676 v 386 l -167,96" /><path
             inkscape:connector-curvature="0"
             id="path902"
             style="fill:none;stroke:#000000;stroke-width:24;stroke-linecap:round;stroke-linejoin:round;stroke-miterlimit:10;stroke-dasharray:none;stroke-opacity:1"
             d="m 5209,7880 v 386 l 1169,676" /><path
             inkscape:connector-curvature="0"
             id="path904"
             style="fill:none;stroke:#000000;stroke-width:24;stroke-linecap:round;stroke-linejoin:round;stroke-miterlimit:10;stroke-dasharray:none;stroke-opacity:1"
             d="m 5042,7977 v 386 l 1169,675" /><path
             inkscape:connector-curvature="0"
             id="path906"
             style="fill:none;stroke:#000000;stroke-width:24;stroke-linecap:round;stroke-linejoin:round;stroke-miterlimit:10;stroke-dasharray:none;stroke-opacity:1"
             d="m 5042,8363 167,-97" /><path
             inkscape:connector-curvature="0"
             id="path908"
             style="fill:none;stroke:#000000;stroke-width:24;stroke-linecap:round;stroke-linejoin:round;stroke-miterlimit:10;stroke-dasharray:none;stroke-opacity:1"
             d="m 7381,8710 -168,-96 v -193" /><path
             inkscape:connector-curvature="0"
             id="path910"
             style="fill:none;stroke:#000000;stroke-width:24;stroke-linecap:round;stroke-linejoin:round;stroke-miterlimit:10;stroke-dasharray:none;stroke-opacity:1"
             d="m 7548,8806 -167,-96 v -193 l -168,97" /><path
             inkscape:connector-curvature="0"
             id="path912"
             style="fill:none;stroke:#000000;stroke-width:24;stroke-linecap:round;stroke-linejoin:round;stroke-miterlimit:10;stroke-dasharray:none;stroke-opacity:1"
             d="m 7548,8806 v -192 l -167,96" /><path
             inkscape:connector-curvature="0"
             id="path914"
             style="fill:none;stroke:#000000;stroke-width:24;stroke-linecap:round;stroke-linejoin:round;stroke-miterlimit:10;stroke-dasharray:none;stroke-opacity:1"
             d="m 8216,9192 -21,-12" /><path
             inkscape:connector-curvature="0"
             id="path916"
             style="fill:none;stroke:#000000;stroke-width:24;stroke-linecap:round;stroke-linejoin:round;stroke-miterlimit:10;stroke-dasharray:none;stroke-opacity:1"
             d="M 7896,9008 7548,8806" /><path
             inkscape:connector-curvature="0"
             id="path918"
             style="fill:none;stroke:#000000;stroke-width:24;stroke-linecap:round;stroke-linejoin:round;stroke-miterlimit:10;stroke-dasharray:none;stroke-opacity:1"
             d="m 8550,8999 -334,193" /><path
             inkscape:connector-curvature="0"
             id="path920"
             style="fill:none;stroke:#000000;stroke-width:24;stroke-linecap:round;stroke-linejoin:round;stroke-miterlimit:10;stroke-dasharray:none;stroke-opacity:1"
             d="m 8550,8999 -668,-385 -334,192" /><path
             inkscape:connector-curvature="0"
             id="path922"
             style="fill:none;stroke:#000000;stroke-width:24;stroke-linecap:round;stroke-linejoin:round;stroke-miterlimit:10;stroke-dasharray:none;stroke-opacity:1"
             d="m 7213,8614 -167,-97 v -154" /><path
             inkscape:connector-curvature="0"
             id="path924"
             style="fill:none;stroke:#000000;stroke-width:24;stroke-linecap:round;stroke-linejoin:round;stroke-miterlimit:10;stroke-dasharray:none;stroke-opacity:1"
             d="m 7213,8421 -167,96" /><path
             inkscape:connector-curvature="0"
             id="path926"
             style="fill:none;stroke:#000000;stroke-width:24;stroke-linecap:round;stroke-linejoin:round;stroke-miterlimit:10;stroke-dasharray:none;stroke-opacity:1"
             d="m 7882,8614 v -734 l -836,483" /><path
             inkscape:connector-curvature="0"
             id="path928"
             style="fill:none;stroke:#000000;stroke-width:24;stroke-linecap:round;stroke-linejoin:round;stroke-miterlimit:10;stroke-dasharray:none;stroke-opacity:1"
             d="m 4541,9385 -669,-386 v -193 l 669,386 v 193" /><path
             inkscape:connector-curvature="0"
             id="path930"
             style="fill:none;stroke:#000000;stroke-width:24;stroke-linecap:round;stroke-linejoin:round;stroke-miterlimit:10;stroke-dasharray:none;stroke-opacity:1"
             d="m 3705,9096 167,-97" /><path
             inkscape:connector-curvature="0"
             id="path932"
             style="fill:none;stroke:#000000;stroke-width:24;stroke-linecap:round;stroke-linejoin:round;stroke-miterlimit:10;stroke-dasharray:none;stroke-opacity:1"
             d="m 3705,9289 v -193 l 668,386 168,-97" /><path
             inkscape:connector-curvature="0"
             id="path934"
             style="fill:none;stroke:#000000;stroke-width:24;stroke-linecap:round;stroke-linejoin:round;stroke-miterlimit:10;stroke-dasharray:none;stroke-opacity:1"
             d="m 3538,9385 167,-96 668,386 v -193" /><path
             inkscape:connector-curvature="0"
             id="path936"
             style="fill:none;stroke:#000000;stroke-width:24;stroke-linecap:round;stroke-linejoin:round;stroke-miterlimit:10;stroke-dasharray:none;stroke-opacity:1"
             d="m 3538,9578 v -193 l 668,386 167,-96" /><path
             inkscape:connector-curvature="0"
             id="path938"
             style="fill:none;stroke:#000000;stroke-width:24;stroke-linecap:round;stroke-linejoin:round;stroke-miterlimit:10;stroke-dasharray:none;stroke-opacity:1"
             d="m 3204,9771 334,-193 668,386 v -193" /><path
             inkscape:connector-curvature="0"
             id="path940"
             style="fill:none;stroke:#000000;stroke-width:24;stroke-linecap:round;stroke-linejoin:round;stroke-miterlimit:10;stroke-dasharray:none;stroke-opacity:1"
             d="m 3204,9771 668,386 334,-193" /><path
             inkscape:connector-curvature="0"
             id="path942"
             style="fill:none;stroke:#000000;stroke-width:24;stroke-linecap:round;stroke-linejoin:round;stroke-miterlimit:10;stroke-dasharray:none;stroke-opacity:1"
             d="m 4708,9096 -669,-386 v -154 l 669,386 v 154" /><path
             inkscape:connector-curvature="0"
             id="path944"
             style="fill:none;stroke:#000000;stroke-width:24;stroke-linecap:round;stroke-linejoin:round;stroke-miterlimit:10;stroke-dasharray:none;stroke-opacity:1"
             d="m 3872,8806 167,-96" /><path
             inkscape:connector-curvature="0"
             id="path946"
             style="fill:none;stroke:#000000;stroke-width:24;stroke-linecap:round;stroke-linejoin:round;stroke-miterlimit:10;stroke-dasharray:none;stroke-opacity:1"
             d="m 4541,9192 167,-96" /><path
             inkscape:connector-curvature="0"
             id="path948"
             style="fill:none;stroke:#000000;stroke-width:24;stroke-linecap:round;stroke-linejoin:round;stroke-miterlimit:10;stroke-dasharray:none;stroke-opacity:1"
             d="M 7581,8826 6545,9424" /><path
             inkscape:connector-curvature="0"
             id="path950"
             style="fill:none;stroke:#000000;stroke-width:24;stroke-linecap:round;stroke-linejoin:round;stroke-miterlimit:10;stroke-dasharray:none;stroke-opacity:1"
             d="m 6545,7070 2005,1158 v 771" /><path
             inkscape:connector-curvature="0"
             id="path952"
             style="fill:none;stroke:#000000;stroke-width:24;stroke-linecap:round;stroke-linejoin:round;stroke-miterlimit:10;stroke-dasharray:none;stroke-opacity:1"
             d="M 3204,8999 6545,7070 v 39 l 1337,771" /><path
             inkscape:connector-curvature="0"
             id="path954"
             style="fill:none;stroke:#000000;stroke-width:24;stroke-linecap:round;stroke-linejoin:round;stroke-miterlimit:10;stroke-dasharray:none;stroke-opacity:1"
             d="M 5209,7880 6545,7109" /><path
             inkscape:connector-curvature="0"
             id="path956"
             style="fill:none;stroke:#000000;stroke-width:24;stroke-linecap:round;stroke-linejoin:round;stroke-miterlimit:10;stroke-dasharray:none;stroke-opacity:1"
             d="M 4039,8556 5042,7977" /><path
             inkscape:connector-curvature="0"
             id="path958"
             style="fill:none;stroke:#000000;stroke-width:24;stroke-linecap:round;stroke-linejoin:round;stroke-miterlimit:10;stroke-dasharray:none;stroke-opacity:1"
             d="m 3204,8999 v 772" /><path
             inkscape:connector-curvature="0"
             id="path960"
             style="fill:none;stroke:#000000;stroke-width:24;stroke-linecap:round;stroke-linejoin:round;stroke-miterlimit:10;stroke-dasharray:none;stroke-opacity:1"
             d="m 5029,10673 v 193" /><path
             inkscape:connector-curvature="0"
             id="path962"
             style="fill:none;stroke:#000000;stroke-width:24;stroke-linecap:round;stroke-linejoin:round;stroke-miterlimit:10;stroke-dasharray:none;stroke-opacity:1"
             d="m 5374,10673 v 193" /><path
             inkscape:connector-curvature="0"
             id="path964"
             style="fill:none;stroke:#000000;stroke-width:24;stroke-linecap:round;stroke-linejoin:round;stroke-miterlimit:10;stroke-dasharray:none;stroke-opacity:1"
             d="m 5105,9709 v 882" /><path
             inkscape:connector-curvature="0"
             id="path966"
             style="fill:none;stroke:#000000;stroke-width:24;stroke-linecap:round;stroke-linejoin:round;stroke-miterlimit:10;stroke-dasharray:none;stroke-opacity:1"
             d="m 5297,9861 v 730" /></g></g><path
         inkscape:connector-curvature="0"
         id="path854-3"
         style="fill:none;stroke:#ea6e6f;stroke-width:52.34645844;stroke-linecap:round;stroke-linejoin:round;stroke-miterlimit:10;stroke-dasharray:none;stroke-opacity:1"
         d="m 6988.2665,8827.9206 c 133.4989,78.844 133.4989,206.676 0,285.52 -133.5,78.844 -349.9447,78.844 -483.4446,0 -133.4989,-78.844 -133.4989,-206.676 0,-285.52 133.4999,-78.844 349.9446,-78.844 483.4446,0" /></g><g
       id="g2293"
       transform="translate(80.651347,129.04215)"><g
         transform="translate(-364.98633,216.71063)"
         id="g1611"><path
           style="fill:#f2ca79;fill-opacity:1;fill-rule:evenodd;stroke:none;stroke-width:4.18771648;stroke-linecap:square;stroke-linejoin:round;stroke-miterlimit:10;stroke-dasharray:none;stroke-dashoffset:0;stroke-opacity:1"
           d="m 768.69072,454.49314 c -1.54564,5.39766 -0.20851,11.40324 -0.65529,17.03256 0.16134,19.53995 -0.32277,39.20567 0.24222,58.66698 2.0521,3.15745 7.03684,0.85647 10.30042,1.55689 9.21614,-0.16363 18.55969,0.32668 27.69687,-0.24222 3.15745,-2.0521 0.85647,-7.03685 1.55689,-10.30043 -0.16137,-21.90572 0.32281,-43.93722 -0.24222,-65.7643 -2.0521,-3.15745 -7.03684,-0.85647 -10.30042,-1.55689 -9.21615,0.16363 -18.55969,-0.32667 -27.69687,0.24223 l -0.59802,0.24222 z"
           id="path1568"
           inkscape:connector-curvature="0"
           transform="matrix(12.5,0,0,-12.5,0,14033.334)" /><path
           style="fill:#ea6e6f;fill-opacity:1;fill-rule:evenodd;stroke:none;stroke-width:4.18771648;stroke-linecap:square;stroke-linejoin:round;stroke-miterlimit:10;stroke-dasharray:none;stroke-dashoffset:0;stroke-opacity:1"
           d="m 1124.9996,326.53726 c -3.5479,1.21128 -3.3446,6.12706 -4.9412,9.03673 -0.9947,3.97923 -3.4128,7.8922 -3.2084,12.03343 2.9962,3.04365 7.9471,3.20421 11.7122,5.04919 3.2389,0.69861 6.5885,3.02345 9.9376,2.10232 3.1929,-4.60861 4.0897,-10.60326 6.2376,-15.78731 1.1241,-2.30176 2.1061,-6.12353 -1.3065,-6.92865 -5.9637,-2.24034 -12.0988,-4.66514 -18.4313,-5.50571 z"
           id="path1566"
           inkscape:connector-curvature="0"
           transform="matrix(12.5,0,0,-12.5,0,14033.334)" /><path
           id="path1563"
           transform="matrix(12.5,0,0,-12.5,0,14033.334)"
           style="fill:#8ecade;fill-opacity:1;fill-rule:evenodd;stroke:none;stroke-width:4.18771648;stroke-linecap:square;stroke-linejoin:round;stroke-miterlimit:10;stroke-dasharray:none;stroke-dashoffset:0;stroke-opacity:1"
           d="m 976.44859,397.71459 c -1.54564,5.39766 -0.20851,11.40324 -0.65529,17.03256 0,38.2825 0,76.56501 0,114.84751 1.44924,4.01912 6.96051,1.41413 10.22004,2.15491 3.25719,-0.71938 8.77464,1.82246 10.22004,-2.15491 0,-43.44419 0,-86.88838 0,-130.33257 -1.44925,-4.01912 -6.96052,-1.41413 -10.22004,-2.15491 -3.14003,0.30371 -6.63117,-0.67087 -9.56475,0.60741 z M 768.69072,303.51382 c -1.54564,5.39765 -0.20851,11.40324 -0.65529,17.03255 0,38.06744 0,76.13488 0,114.20231 1.36403,3.96324 6.73153,1.44925 9.89743,2.1549 46.88532,0 93.77063,0 140.65595,0 3.96324,-1.36403 1.44925,-6.73152 2.1549,-9.89743 -0.16125,-15.66871 0.32267,-31.46312 -0.24222,-47.05319 -1.95327,-3.12188 -6.80723,-0.87996 -9.96774,-1.55689 -3.2549,0.71733 -8.73964,-1.81328 -10.20995,2.136 -0.10675,11.86962 -0.21406,23.73923 -0.3226,35.60884 -37.0677,0 -74.13539,0 -111.20309,0 0,-30.82394 0,-61.64788 0,-92.47182 18.13899,0 36.27798,0 54.41698,0 0.27086,18.287 -0.10489,36.70413 0.56963,54.91021 1.9668,3.10189 6.80123,0.87204 9.96041,1.54573 3.25394,-0.71743 8.74429,1.81555 10.20617,-2.1423 0.10863,-18.53468 0.21669,-37.06937 0.32387,-55.60406 11.91456,0 23.82911,0 35.74367,0 0.4974,6.52682 -0.54306,13.38082 0.95143,19.69531 5.61528,1.48722 11.79157,0.19187 17.61854,0.62883 3.96324,-1.36403 1.44925,-6.73153 2.1549,-9.89743 -0.16386,-9.43117 0.32669,-18.98983 -0.24222,-28.34208 -2.0521,-3.15745 -7.03684,-0.85647 -10.30042,-1.55689 -46.67024,0 -93.34049,0 -140.01074,0 -0.49987,0.20247 -0.99974,0.40494 -1.49961,0.60741 z"
           inkscape:connector-curvature="0" /><path
           style="fill:#bfda70;fill-opacity:1;fill-rule:evenodd;stroke:none;stroke-width:4.18771648;stroke-linecap:square;stroke-linejoin:round;stroke-miterlimit:10;stroke-dasharray:none;stroke-dashoffset:0;stroke-opacity:1"
           d="m 815.80623,337.25002 c -9.72721,-0.11703 -16.74181,10.89896 -13.17011,19.7621 2.75346,8.53732 13.93153,12.04881 21.26927,7.04818 9.00054,-4.88952 8.75313,-18.99041 0.35663,-24.32017 -2.4522,-1.71511 -5.46421,-2.6086 -8.45579,-2.49011 z"
           id="path1559"
           inkscape:connector-curvature="0"
           transform="matrix(12.5,0,0,-12.5,0,14033.334)" /><path
           id="path1539"
           transform="matrix(12.5,0,0,-12.5,0,14033.334)"
           style="fill:#c5c5c5;fill-opacity:1;fill-rule:evenodd;stroke:none;stroke-width:4.18771648;stroke-linecap:square;stroke-linejoin:round;stroke-miterlimit:10;stroke-dasharray:none;stroke-dashoffset:0;stroke-opacity:1"
           d="m 1108.9833,303.50417 c -1.6707,3.06939 -0.3453,6.92432 -0.7681,10.31692 0,21.44295 0,42.8859 0,64.32884 0.8527,3.60908 5.4454,1.66513 8.0856,2.15464 9.8664,-0.1054 19.8072,0.20991 29.6275,-0.15645 3.0869,-1.17719 1.213,-5.3912 1.7261,-7.92921 -0.2165,-10.72519 0.4607,-21.51682 -0.4714,-32.20363 -0.6567,-2.71783 -4.3987,-1.91406 -4.7717,0.53821 -1.8548,4.26799 -3.0219,8.79376 -4.8208,13.08283 -6.4821,-2.05693 -12.9763,-4.13665 -19.2714,-6.71785 1.9446,-6.49376 4.0662,-12.9508 6.5896,-19.24376 6.8131,1.91291 13.434,4.71712 20.2744,6.43468 3.4847,-0.19841 2.0874,-4.56995 2.428,-6.88105 -0.019,-7.49339 0.2348,-15.05741 -0.1132,-22.50424 -1.1772,-3.08688 -5.3912,-1.21302 -7.9292,-1.72606 -9.8664,0.10539 -19.8072,-0.20992 -29.6275,0.15644 -0.3193,0.11656 -0.6386,0.23313 -0.9579,0.34969 z m -19.1618,0 c -1.6707,3.06939 -0.3453,6.92432 -0.7681,10.31692 0,21.44295 0,42.8859 0,64.32884 0.8527,3.60908 5.4455,1.66513 8.0857,2.15464 3.9406,-0.27773 8.0842,0.59213 11.8798,-0.50614 1.6707,-3.06938 0.3453,-6.92432 0.7681,-10.31692 0,-21.44295 0,-42.8859 0,-64.32884 -0.8527,-3.60908 -5.4454,-1.66514 -8.0856,-2.15463 -3.9215,0.2778 -8.1135,-0.5922 -11.8799,0.50613 z m -18.7055,0 c -1.6707,3.06939 -0.3454,6.92432 -0.7682,10.31692 0,21.44295 0,42.8859 0,64.32884 0.8528,3.60908 5.4455,1.66513 8.0857,2.15464 3.9407,-0.27773 8.0843,0.59213 11.8799,-0.50614 1.6707,-3.06938 0.3453,-6.92432 0.7681,-10.31692 0,-21.44295 0,-42.8859 0,-64.32884 -0.8527,-3.60908 -5.4455,-1.66514 -8.0857,-2.15463 -3.9215,0.2778 -8.1134,-0.5922 -11.8798,0.50613 z m -19.3008,0 c -1.708,2.9354 0.01,6.62178 -0.3852,9.88537 0.3219,21.55316 0.175,43.17705 0.2123,64.76039 0.8527,3.60908 5.4455,1.66513 8.0857,2.15464 3.9406,-0.27773 8.0842,0.59213 11.8798,-0.50614 1.6707,-3.06938 0.3453,-6.92432 0.7681,-10.31692 0,-21.44295 0,-42.8859 0,-64.32884 -0.8527,-3.60908 -5.4454,-1.66514 -8.0856,-2.15463 -4.123,0.28712 -8.5061,-0.61079 -12.4751,0.50613 z M 806.75374,454.21416 c -1.81736,1.50538 -0.78497,4.14046 -1.05726,6.1881 0,23.03977 0,46.07953 0,69.11929 0.10396,2.05084 2.34814,2.35848 3.97911,2.15419 5.0079,-0.0794 10.05855,0.15937 15.0395,-0.12047 2.35859,-0.54563 1.59207,-3.43643 1.71414,-5.22735 0,-23.41996 0,-46.83991 0,-70.25987 -0.10396,-2.05084 -2.34814,-2.35847 -3.97911,-2.15418 -5.0079,0.0794 -10.05855,-0.15938 -15.0395,0.12046 -0.21896,0.06 -0.43792,0.11989 -0.65688,0.17983 z m 18.70555,0 c -1.81736,1.50538 -0.78497,4.14046 -1.05726,6.1881 0,23.03977 0,46.07953 0,69.11929 0.10396,2.05084 2.34814,2.35848 3.97911,2.15419 5.0131,-0.0407 10.04799,0.0808 15.04759,-0.0602 2.36534,-0.30788 1.9351,-3.08878 1.93417,-4.83135 0,-23.57203 0,-47.14406 0,-70.7161 -0.10396,-2.05084 -2.34815,-2.35847 -3.97912,-2.15418 -5.0131,0.0406 -10.04798,-0.0808 -15.04759,0.0602 -0.2923,0.08 -0.5846,0.16004 -0.8769,0.24006 z m 18.93367,0 c -1.81736,1.50538 -0.78498,4.14046 -1.05727,6.1881 0,23.03977 0,46.07953 0,69.11929 0.10396,2.05084 2.34815,2.35848 3.97912,2.15419 5.11227,-0.0409 10.24643,0.081 15.34521,-0.0602 2.29899,-0.28143 1.96144,-2.96837 1.85453,-4.66972 -0.36707,-17.65534 -0.17497,-35.31834 -0.2225,-52.97682 -0.0377,-6.03731 0.0861,-12.09621 -0.052,-18.12008 -0.30686,-2.36566 -3.08887,-1.93621 -4.83151,-1.93501 -4.78078,0.0808 -9.60493,-0.16115 -14.35871,0.12046 -0.21896,0.06 -0.43792,0.11989 -0.65688,0.17983 z m 75.86127,-150.62955 c -1.43378,12.17393 -0.50923,24.81485 -1.03365,37.16872 -5.58648,0 -11.17295,0 -16.75943,0 -0.63526,-6.61082 0.59553,-13.66311 -1.20117,-19.9994 -12.12163,-1.23452 -24.6592,-0.17707 -36.94062,-0.53108 -4.53302,3.14608 -1.07058,10.83213 -2.15463,15.84162 0,14.1854 0,28.3708 0,42.55619 -5.55915,0 -11.1183,0 -16.67745,0 -0.24524,-18.392 0.48899,-36.98995 -0.36745,-55.25345 -4.28558,-2.9357 -11.1095,-0.5439 -16.38664,-1.31943 -13.33088,0.24706 -26.86969,-0.49479 -40.07123,0.36746 -2.9357,4.28557 -0.5439,11.10949 -1.31943,16.38663 0.24472,25.80174 -0.4896,51.80933 0.36746,77.48233 4.28557,2.9357 11.10949,0.5439 16.38663,1.31943 31.9363,0 63.87261,0 95.80891,0 4.53302,-3.14608 1.07058,-10.83213 2.15463,-15.84162 0,-7.19161 0,-14.38322 0,-21.57483 5.71124,0.13605 11.42247,0.2727 17.13368,0.4099 0,18.04912 0,36.09824 0,54.14736 -49.62186,0.153 -99.24372,0.30628 -148.86559,0.4598 -4.52112,3.15526 -1.06499,10.82766 -2.1475,15.83627 -1.25521,7.7408 8.58481,4.05584 13.10422,4.88668 26.95992,0 53.91984,0 80.87976,0 0.2478,24.77873 -0.49124,49.76495 0.36746,74.41524 4.28557,2.9357 11.10949,0.5439 16.38663,1.31943 32.24045,0 64.48092,0 96.72137,0 4.53302,-3.14608 1.07058,-10.83213 2.15464,-15.84162 0,-38.82197 0,-77.64395 0,-116.46593 5.55915,0 11.11829,0 16.67744,0 0,43.3843 0,86.76861 0,130.15292 3.14609,4.53302 10.83213,1.07057 15.84163,2.15463 45.015,0 90.03,0 135.0449,0 4.5331,-3.14608 1.0706,-10.83213 2.1547,-15.84162 0,-45.01498 0,-90.02997 0,-135.04494 -3.1461,-4.53302 -10.8322,-1.07058 -15.8417,-2.15464 -26.0474,0 -52.0949,0 -78.1423,0 -0.2478,-24.77873 0.4912,-49.76495 -0.3675,-74.41524 -4.2855,-2.93569 -11.1095,-0.54389 -16.3866,-1.31942 -38.31109,0 -76.62218,0 -114.93326,0 l -0.83521,0.36745 z M 816.50758,339.2385 c 7.82353,-0.72069 13.7301,7.9119 12.49828,15.07529 -1.99565,9.19347 -14.52467,14.13582 -21.5374,7.15002 -8.62834,-7.23849 -2.36504,-23.29768 9.03912,-22.22531 z"
           inkscape:connector-curvature="0" /><g
           id="g1086"
           transform="translate(5677.8548,4000.3068)"><g
             id="g1088"
             clip-path="url(#clipPath1092)"><path
               d="m 4697,5634.5 c 0,95.269 -77.231,172.5 -172.5,172.5 -95.269,0 -172.5,-77.231 -172.5,-172.5 0,-95.269 77.231,-172.5 172.5,-172.5 95.269,0 172.5,77.231 172.5,172.5"
               style="fill:none;stroke:#000000;stroke-width:24;stroke-linecap:round;stroke-linejoin:round;stroke-miterlimit:10;stroke-dasharray:none;stroke-opacity:1"
               id="path1094"
               inkscape:connector-curvature="0" /><path
               d="m 8374,5955 -92,-268 269,-92 91,269 -268,91"
               style="fill:none;stroke:#000000;stroke-width:24;stroke-linecap:round;stroke-linejoin:round;stroke-miterlimit:10;stroke-dasharray:none;stroke-opacity:1"
               id="path1096"
               inkscape:connector-curvature="0" /><path
               d="m 3933,4582 h 1890 v 709 H 5587 V 4818 H 4169 v 1182 h 709 v -709 h 234 v 726 h 477 v -254 h 234 v 473 H 3933 V 4582"
               style="fill:none;stroke:#000000;stroke-width:24;stroke-linecap:round;stroke-linejoin:round;stroke-miterlimit:10;stroke-dasharray:none;stroke-opacity:1"
               id="path1098"
               inkscape:connector-curvature="0" /><path
               d="M 6768,3400 V 5054 H 6532 V 3400 h 236"
               style="fill:none;stroke:#000000;stroke-width:24;stroke-linecap:round;stroke-linejoin:round;stroke-miterlimit:10;stroke-dasharray:none;stroke-opacity:1"
               id="path1100"
               inkscape:connector-curvature="0" /><path
               d="m 7949,5291 v 945 h -236 v -945 h 236"
               style="fill:none;stroke:#000000;stroke-width:24;stroke-linecap:round;stroke-linejoin:round;stroke-miterlimit:10;stroke-dasharray:none;stroke-opacity:1"
               id="path1102"
               inkscape:connector-curvature="0" /><path
               d="M 8185,6236 H 7949"
               style="fill:none;stroke:#000000;stroke-width:24;stroke-linecap:round;stroke-linejoin:round;stroke-miterlimit:10;stroke-dasharray:none;stroke-opacity:1"
               id="path1104"
               inkscape:connector-curvature="0" /><path
               d="M 8658,6236 H 8185 V 5291 H 7949"
               style="fill:none;stroke:#000000;stroke-width:24;stroke-linecap:round;stroke-linejoin:round;stroke-miterlimit:10;stroke-dasharray:none;stroke-opacity:1"
               id="path1106"
               inkscape:connector-curvature="0" /><path
               d="M 8658,6236 V 5291 H 8185"
               style="fill:none;stroke:#000000;stroke-width:24;stroke-linecap:round;stroke-linejoin:round;stroke-miterlimit:10;stroke-dasharray:none;stroke-opacity:1"
               id="path1108"
               inkscape:connector-curvature="0" /><path
               d="m 7713,6236 h -236 v -945 h 236"
               style="fill:none;stroke:#000000;stroke-width:24;stroke-linecap:round;stroke-linejoin:round;stroke-miterlimit:10;stroke-dasharray:none;stroke-opacity:1"
               id="path1110"
               inkscape:connector-curvature="0" /><path
               d="m 4642,4345 v -945 h 236 v 945 h -236"
               style="fill:none;stroke:#000000;stroke-width:24;stroke-linecap:round;stroke-linejoin:round;stroke-miterlimit:10;stroke-dasharray:none;stroke-opacity:1"
               id="path1112"
               inkscape:connector-curvature="0" /><path
               d="m 4406,3400 h 236"
               style="fill:none;stroke:#000000;stroke-width:24;stroke-linecap:round;stroke-linejoin:round;stroke-miterlimit:10;stroke-dasharray:none;stroke-opacity:1"
               id="path1114"
               inkscape:connector-curvature="0" /><path
               d="m 3933,3400 h 473 v 945 h 236"
               style="fill:none;stroke:#000000;stroke-width:24;stroke-linecap:round;stroke-linejoin:round;stroke-miterlimit:10;stroke-dasharray:none;stroke-opacity:1"
               id="path1116"
               inkscape:connector-curvature="0" /><path
               d="m 3933,3400 v 945 h 473"
               style="fill:none;stroke:#000000;stroke-width:24;stroke-linecap:round;stroke-linejoin:round;stroke-miterlimit:10;stroke-dasharray:none;stroke-opacity:1"
               id="path1118"
               inkscape:connector-curvature="0" /><path
               d="m 4878,3400 h 236 v 945 h -236"
               style="fill:none;stroke:#000000;stroke-width:24;stroke-linecap:round;stroke-linejoin:round;stroke-miterlimit:10;stroke-dasharray:none;stroke-opacity:1"
               id="path1120"
               inkscape:connector-curvature="0" /><path
               d="M 7477,6236 H 5823"
               style="fill:none;stroke:#000000;stroke-width:24;stroke-linecap:round;stroke-linejoin:round;stroke-miterlimit:10;stroke-dasharray:none;stroke-opacity:1"
               id="path1122"
               inkscape:connector-curvature="0" /><path
               d="M 6768,3400 H 8658 V 5291"
               style="fill:none;stroke:#000000;stroke-width:24;stroke-linecap:round;stroke-linejoin:round;stroke-miterlimit:10;stroke-dasharray:none;stroke-opacity:1"
               id="path1124"
               inkscape:connector-curvature="0" /><path
               d="M 5114,3400 H 6532"
               style="fill:none;stroke:#000000;stroke-width:24;stroke-linecap:round;stroke-linejoin:round;stroke-miterlimit:10;stroke-dasharray:none;stroke-opacity:1"
               id="path1126"
               inkscape:connector-curvature="0" /><path
               d="M 3933,4582 V 4345"
               style="fill:none;stroke:#000000;stroke-width:24;stroke-linecap:round;stroke-linejoin:round;stroke-miterlimit:10;stroke-dasharray:none;stroke-opacity:1"
               id="path1128"
               inkscape:connector-curvature="0" /></g></g><path
           d="m 12617.811,9844.356 c 0,170.134 -137.921,308.056 -308.056,308.056 -170.134,0 -308.055,-137.922 -308.055,-308.056 0,-170.1343 137.921,-308.0558 308.055,-308.0558 170.135,0 308.056,137.9215 308.056,308.0558"
           style="fill:none;stroke:#ea6e6f;stroke-width:52.34645844;stroke-linecap:round;stroke-linejoin:round;stroke-miterlimit:10;stroke-dasharray:none;stroke-opacity:1"
           id="path1094-6"
           inkscape:connector-curvature="0" /></g><path
         sodipodi:nodetypes="cccccc"
         inkscape:original-d="m 11940.431,10049.158 c -50.785,-132.3297 -102.14,-266.1246 -153.237,-399.2246 -372.363,110.2464 -744.308,220.353 -1117.02,330.6704 -39.007,-224.6839 -77.947,-448.9243 -116.945,-673.4387 -186.849,2.7011 -373.664,5.3891 -560.5271,8.0651 -29.561,104.8641 -59.1318,209.706 -88.7164,314.5402"
         inkscape:path-effect="#path-effect1836"
         inkscape:connector-curvature="0"
         id="path1834"
         d="m 11940.431,10049.158 c -50.792,-132.327 -102.147,-266.1218 -313.876,-277.5574 -211.728,-11.4356 -583.673,98.6709 -789.536,41.496 -205.862,-57.175 -244.802,-281.4154 -357.721,-392.3292 -112.918,-110.9138 -299.733,-108.2259 -407.953,-54.4516 -108.219,53.7743 -137.7897,158.6162 -167.3595,263.4546"
         style="fill:none;stroke:#000000;stroke-width:21.25;stroke-linecap:butt;stroke-linejoin:miter;stroke-miterlimit:4;stroke-dasharray:none;stroke-opacity:1;marker-end:url(#Arrow2Mend)" /><path
         sodipodi:nodetypes="cccccc"
         inkscape:original-d="m 9823.3341,9621.7053 c -20.3083,-162.5529 -40.3127,-322.5866 -60.489,-483.908 272.8939,16.1434 545.7539,32.2731 818.6119,48.3908 73.943,192.2318 147.873,384.4505 221.791,576.6572 209.688,13.4531 419.399,26.8962 629.08,40.3256 6.734,-385.7454 13.455,-771.552 20.163,-1157.3469"
         inkscape:path-effect="#path-effect2106"
         inkscape:connector-curvature="0"
         id="path2104"
         d="m 9823.3341,9621.7053 c -20.3191,-162.5515 -40.3235,-322.5853 86.0411,-395.1808 126.3648,-72.5955 399.2248,-56.4659 572.6208,47.7161 173.397,104.1819 247.327,296.4005 389.134,399.2234 141.807,102.8229 351.518,116.2659 459.718,-69.8864 108.2,-186.1523 114.922,-571.9589 121.643,-957.7536"
         style="fill:none;stroke:#000000;stroke-width:21.25;stroke-linecap:butt;stroke-linejoin:miter;stroke-miterlimit:4;stroke-dasharray:none;stroke-opacity:1;marker-end:url(#marker2130)" /><path
         sodipodi:nodetypes="ccccc"
         inkscape:original-d="m 11940.431,10049.158 c 155.939,64.534 311.865,129.054 467.779,193.563 193.146,40.293 386.316,80.581 579.456,120.853 146.94,-14.732 293.866,-29.477 440.783,-44.234 69.112,-87.979 138.209,-175.967 207.295,-263.97"
         inkscape:path-effect="#path-effect2114"
         inkscape:connector-curvature="0"
         id="path2112"
         d="m 11940.431,10049.158 c 155.942,64.527 311.867,129.048 486.397,181.447 174.53,52.399 367.7,92.688 537.738,105.455 170.039,12.768 316.965,-1.976 424.973,-53.343 108.008,-51.367 177.105,-139.355 246.205,-227.347"
         style="fill:none;stroke:#000000;stroke-width:21.25;stroke-linecap:butt;stroke-linejoin:miter;stroke-miterlimit:4;stroke-dasharray:none;stroke-opacity:1;marker-end:url(#marker2134)" /><path
         sodipodi:nodetypes="ccccc"
         inkscape:original-d="m 13599.672,10009.799 c -206.269,-58.1105 -412.49,-116.2167 -618.839,-174.3675 -307.89,-5.3658 -615.625,-10.7411 -923.457,-16.1304 -126.344,-112.9022 -251.682,-224.9066 -379.061,-338.7356 -46.056,-277.7539 -91.392,-551.1049 -137.108,-826.6761"
         inkscape:path-effect="#path-effect2118"
         inkscape:connector-curvature="0"
         id="path2116"
         d="m 13599.672,10009.799 c -206.267,-58.1188 -412.488,-116.2248 -669.608,-147.9852 -257.121,-31.7603 -564.856,-37.1357 -781.944,-96.2756 -217.087,-59.1399 -342.426,-171.1442 -429.149,-366.9345 -86.722,-195.7904 -132.059,-469.1413 -177.764,-744.7143"
         style="fill:none;stroke:#000000;stroke-width:21.25;stroke-linecap:butt;stroke-linejoin:miter;stroke-miterlimit:4;stroke-dasharray:none;stroke-opacity:1;marker-end:url(#marker2138)" /><path
         sodipodi:nodetypes="cccc"
         inkscape:original-d="m 11488.784,8581.3033 c -56.443,-149.1929 -112.899,-298.3977 -169.367,-447.6153 -337.409,-38.9724 -674.771,-77.9505 -1012.175,-116.9445 -247.328,12.1107 -494.649,24.208 -741.9922,36.2931"
         inkscape:path-effect="#path-effect2122"
         inkscape:connector-curvature="0"
         id="path2120"
         d="m 11488.784,8581.3033 c -56.45,-149.1902 -112.906,-298.3952 -309.84,-392.4969 -196.935,-94.1018 -534.297,-133.0798 -826.664,-146.5226 -292.367,-13.4427 -539.6876,-1.3455 -787.0302,10.7528"
         style="fill:none;stroke:#000000;stroke-width:21.25;stroke-linecap:butt;stroke-linejoin:miter;stroke-miterlimit:4;stroke-dasharray:none;stroke-opacity:1;marker-end:url(#marker2142)" /><circle
         transform="scale(1,-1)"
         r="230.96791"
         cy="-10062.787"
         cx="11947.599"
         id="path2144"
         style="fill:#da98cf;fill-opacity:1;fill-rule:evenodd;stroke:#000000;stroke-width:21.25;stroke-linecap:square;stroke-linejoin:round;stroke-miterlimit:4;stroke-dasharray:none;stroke-dashoffset:0;stroke-opacity:1" /><text
         transform="scale(1,-1)"
         id="text2148"
         y="-9836.1387"
         x="10636.592"
         style="font-style:normal;font-variant:normal;font-weight:normal;font-stretch:normal;font-size:283.04666138px;line-height:1.25;font-family:Ubuntu;-inkscape-font-specification:Ubuntu;letter-spacing:0px;word-spacing:0px;fill:#000000;fill-opacity:1;stroke:none;stroke-width:12.5"
         xml:space="preserve"><tspan
           style="stroke-width:12.5"
           y="-9836.1387"
           x="10636.592"
           id="tspan2146"
           sodipodi:role="line">1</tspan></text>
<text
         transform="scale(1,-1)"
         id="text2148-2"
         y="-10053.106"
         x="12629.297"
         style="font-style:normal;font-variant:normal;font-weight:normal;font-stretch:normal;font-size:283.04666138px;line-height:1.25;font-family:Ubuntu;-inkscape-font-specification:Ubuntu;letter-spacing:0px;word-spacing:0px;fill:#000000;fill-opacity:1;stroke:none;stroke-width:12.5"
         xml:space="preserve"><tspan
           style="stroke-width:12.5"
           y="-10053.106"
           x="12629.297"
           id="tspan2146-2"
           sodipodi:role="line">1</tspan></text>
<text
         transform="scale(1,-1)"
         id="text2148-2-8"
         y="-9585.4668"
         x="12446.804"
         style="font-style:normal;font-variant:normal;font-weight:normal;font-stretch:normal;font-size:283.04666138px;line-height:1.25;font-family:Ubuntu;-inkscape-font-specification:Ubuntu;letter-spacing:0px;word-spacing:0px;fill:#000000;fill-opacity:1;stroke:none;stroke-width:12.5"
         xml:space="preserve"><tspan
           style="stroke-width:12.5"
           y="-9585.4668"
           x="12446.804"
           id="tspan2146-2-9"
           sodipodi:role="line">2</tspan></text>
<text
         transform="scale(1,-1)"
         id="text2148-2-8-7"
         y="-9286.6514"
         x="11197.384"
         style="font-style:normal;font-variant:normal;font-weight:normal;font-stretch:normal;font-size:283.04666138px;line-height:1.25;font-family:Ubuntu;-inkscape-font-specification:Ubuntu;letter-spacing:0px;word-spacing:0px;fill:#000000;fill-opacity:1;stroke:none;stroke-width:12.5"
         xml:space="preserve"><tspan
           style="stroke-width:12.5"
           y="-9286.6514"
           x="11197.384"
           id="tspan2146-2-9-3"
           sodipodi:role="line">2</tspan></text>
<text
         transform="scale(1,-1)"
         id="text2148-2-8-6"
         y="-7900.8442"
         x="11014.892"
         style="font-style:normal;font-variant:normal;font-weight:normal;font-stretch:normal;font-size:283.04666138px;line-height:1.25;font-family:Ubuntu;-inkscape-font-specification:Ubuntu;letter-spacing:0px;word-spacing:0px;fill:#000000;fill-opacity:1;stroke:none;stroke-width:12.5"
         xml:space="preserve"><tspan
           style="stroke-width:12.5"
           y="-7900.8442"
           x="11014.892"
           id="tspan2146-2-9-1"
           sodipodi:role="line">3</tspan></text>
</g></g></svg>